<?xml version="1.0" standalone="no"?>
<!DOCTYPE svg PUBLIC "-//W3C//DTD SVG 20010904//EN"
 "http://www.w3.org/TR/2001/REC-SVG-20010904/DTD/svg10.dtd">
<svg version="1.0" xmlns="http://www.w3.org/2000/svg"
 width="1198.000000pt" height="1280.000000pt" viewBox="0 0 1198.000000 1280.000000"
 preserveAspectRatio="xMidYMid meet">
<metadata>
Created by potrace 1.15, written by Peter Selinger 2001-2017
</metadata>
<g transform="translate(0.000000,1280.000000) scale(0.100000,-0.100000)"
fill="#9758A6" stroke="none">
<path d="M80 12566 l0 -226 1596 -1713 c878 -941 1621 -1737 1651 -1768 l54
-56 55 -634 c62 -730 127 -1484 184 -2149 22 -256 56 -645 75 -865 19 -220 46
-539 61 -708 l26 -308 -23 -26 c-29 -32 -3579 -3724 -3686 -3834 l-74 -75 98
-85 c53 -46 107 -92 118 -101 21 -16 56 20 1811 1842 984 1022 1790 1855 1791
1851 2 -5 108 -1218 135 -1549 l11 -142 69 0 68 0 0 -430 0 -430 380 0 380 0
0 430 0 430 1124 0 1124 0 7 -27 c13 -53 94 -213 145 -287 97 -140 274 -288
427 -357 34 -16 102 -41 150 -56 80 -24 102 -27 248 -27 194 0 265 17 430 99
390 193 626 600 584 1008 -18 175 -72 322 -176 472 l-34 50 43 -45 c23 -25
593 -636 1267 -1358 l1224 -1313 111 110 111 111 -61 62 c-46 48 -2853 3060
-2970 3188 l-24 26 90 1029 c212 2445 350 4037 350 4050 0 13 56 15 415 15
l415 0 0 611 -1 611 1061 1101 1060 1101 0 231 c-1 183 -3 227 -13 214 -7 -8
-585 -610 -1285 -1337 l-1273 -1322 -141 0 -140 0 5 43 c4 23 9 78 12 122 3
44 8 97 11 118 l6 37 164 0 164 0 0 89 0 89 33 7 c122 26 258 139 323 270 34
69 39 87 42 170 7 144 -37 252 -145 359 -192 191 -465 187 -658 -8 -38 -39
-79 -90 -89 -114 -11 -23 -22 -41 -26 -40 -4 2 -36 39 -70 83 -82 105 -274
293 -353 345 -236 155 -600 254 -1234 336 l-43 5 0 150 0 149 -890 0 -890 0 0
-134 0 -134 -82 -7 c-282 -22 -682 -77 -865 -118 l-103 -24 0 104 0 103 -295
0 -295 0 0 -218 0 -218 -87 -75 c-177 -152 -340 -359 -435 -553 l-51 -106
-318 0 -319 0 0 -255 0 -255 305 0 c168 0 305 -1 306 -2 2 -7 86 -983 85 -985
-1 -1 -730 780 -1620 1735 -891 955 -1623 1739 -1628 1740 -4 2 -8 -98 -8
-222z m7010 -736 l0 -190 -715 0 -715 0 0 185 0 185 713 3 c391 1 713 3 715 5
1 1 2 -83 2 -188z m-1600 -220 l0 -140 890 0 889 0 3 123 3 124 193 -28 c450
-64 759 -150 946 -261 89 -52 277 -235 370 -359 63 -82 156 -234 156 -253 0
-3 -1012 -6 -2250 -6 l-2250 0 0 394 0 393 103 22 c219 47 611 102 877 124 25
2 51 4 58 5 9 2 12 -32 12 -138z m-1640 -550 l0 -250 -190 0 c-104 0 -190 4
-190 8 0 15 110 193 158 257 40 52 210 235 219 235 2 0 3 -112 3 -250z m5130
-782 c0 -12 -5 -84 -12 -160 l-11 -138 -159 0 -158 0 0 -400 0 -400 -487 -506
-488 -506 -3 216 -2 216 -1090 0 -1090 0 0 -395 0 -395 918 -2 918 -3 -650
-675 c-357 -371 -653 -676 -656 -678 -7 -3 -2438 2598 -2468 2640 -8 11 -29
211 -62 590 -28 315 -50 583 -50 596 l0 22 2775 0 2775 0 0 -22z m199 -535
c-169 -179 -358 -373 -363 -373 -8 0 -8 425 1 433 3 4 101 7 216 7 l210 0 -64
-67z m498 -800 c-2 -2 -189 -2 -415 -1 l-411 3 412 428 412 429 3 -428 c1
-235 1 -429 -1 -431z m-822 -220 c-3 -27 -98 -1112 -210 -2413 -113 -1301
-208 -2386 -212 -2413 l-8 -47 -1102 1182 -1102 1182 82 86 c45 47 599 622
1231 1278 l1148 1192 89 0 90 0 -6 -47z m-4126 -1366 l1061 -1138 -498 -517
c-274 -284 -689 -716 -923 -958 -233 -243 -425 -436 -426 -430 -2 6 -21 223
-43 481 -22 259 -56 655 -76 880 -19 226 -48 563 -64 750 -36 418 -44 513
-119 1395 -33 388 -63 721 -65 740 l-5 34 48 -49 c27 -28 526 -562 1110 -1188z
m2487 -2668 l1169 -1253 -2 -84 c0 -46 -3 -86 -6 -88 -3 -3 -33 3 -68 13 -49
13 -101 17 -224 17 -145 0 -168 -3 -248 -27 -179 -55 -309 -131 -444 -260
-205 -196 -323 -465 -323 -734 l0 -83 -1470 0 c-1168 0 -1472 3 -1475 12 -2 7
-13 121 -24 253 -11 132 -43 507 -71 833 l-51 592 33 39 c18 22 474 496 1013
1056 l980 1016 21 -24 c11 -13 546 -588 1190 -1278z m1467 -1574 c60 -67 61
-68 17 -33 -25 19 -69 50 -97 68 -48 29 -53 35 -53 68 l0 36 36 -35 c20 -18
64 -65 97 -104z m-440 -142 c125 -30 244 -101 344 -204 68 -71 84 -92 126
-169 62 -114 82 -189 82 -320 0 -131 -20 -206 -82 -320 -130 -239 -374 -392
-625 -392 -47 0 -110 5 -140 12 -74 17 -222 90 -290 144 -121 96 -229 264
-263 406 -19 83 -19 217 0 300 34 142 143 311 263 405 180 142 380 189 585
138z"/>
<path d="M7973 2656 c-104 -34 -194 -114 -241 -214 -24 -50 -27 -69 -27 -162
0 -99 2 -110 32 -171 39 -80 111 -150 191 -187 50 -24 69 -27 157 -27 92 0
106 3 167 32 85 40 151 106 191 191 29 61 32 76 32 162 0 86 -3 101 -32 162
-40 85 -106 151 -191 191 -57 27 -80 32 -152 34 -51 2 -102 -3 -127 -11z"/>
</g>
</svg>
